<svg width="800" height="600" xmlns="http://www.w3.org/2000/svg"><rect x="0" y="0" width="800" height="600" fill="#FFFFFF" /><text x="400" y="25" text-anchor="middle" font-size="16" fill="black">Iris Dataset Scatter Plot</text><defs><clipPath id="plotAreaClip"><rect x="50" y="50" width="700" height="500" /></clipPath></defs><line x1="50" y1="550" x2="750" y2="550" stroke="black" stroke-width="1" /><line x1="50" y1="550" x2="50" y2="555" stroke="black" stroke-width="1" /><text x="50" y="570" text-anchor="middle" font-size="10" fill="black">-50</text><line x1="190" y1="550" x2="190" y2="555" stroke="black" stroke-width="1" /><text x="190" y="570" text-anchor="middle" font-size="10" fill="black">0</text><line x1="330" y1="550" x2="330" y2="555" stroke="black" stroke-width="1" /><text x="330" y="570" text-anchor="middle" font-size="10" fill="black">50</text><line x1="470" y1="550" x2="470" y2="555" stroke="black" stroke-width="1" /><text x="470" y="570" text-anchor="middle" font-size="10" fill="black">100</text><line x1="610" y1="550" x2="610" y2="555" stroke="black" stroke-width="1" /><text x="610" y="570" text-anchor="middle" font-size="10" fill="black">150</text><line x1="750" y1="550" x2="750" y2="555" stroke="black" stroke-width="1" /><text x="750" y="570" text-anchor="middle" font-size="10" fill="black">200</text><text x="400" y="587.5" text-anchor="middle" font-size="12" fill="black">Sepal Length</text><line x1="50" y1="50" x2="50" y2="550" stroke="black" stroke-width="1" /><line x1="45" y1="550" x2="50" y2="550" stroke="black" stroke-width="1" /><text x="40" y="550" text-anchor="end" dominant-baseline="middle" font-size="10" fill="black">4</text><line x1="45" y1="450" x2="50" y2="450" stroke="black" stroke-width="1" /><text x="40" y="450" text-anchor="end" dominant-baseline="middle" font-size="10" fill="black">5</text><line x1="45" y1="350" x2="50" y2="350" stroke="black" stroke-width="1" /><text x="40" y="350" text-anchor="end" dominant-baseline="middle" font-size="10" fill="black">6</text><line x1="45" y1="250" x2="50" y2="250" stroke="black" stroke-width="1" /><text x="40" y="250" text-anchor="end" dominant-baseline="middle" font-size="10" fill="black">7</text><line x1="45" y1="150" x2="50" y2="150" stroke="black" stroke-width="1" /><text x="40" y="150" text-anchor="end" dominant-baseline="middle" font-size="10" fill="black">8</text><line x1="45" y1="50" x2="50" y2="50" stroke="black" stroke-width="1" /><text x="40" y="50" text-anchor="end" dominant-baseline="middle" font-size="10" fill="black">9</text><text transform="translate(25,300) rotate(-90)" text-anchor="middle" font-size="12" fill="black">Sepal Width</text><rect x="50" y="50" width="700" height="500" fill="none" stroke="gray" stroke-width="1" /><g id="legend" transform="translate(760, 50)" /><g id="data-series" clip-path="url(#plotAreaClip)"><circle cx="192.8" cy="440.00000000000006" r="5" fill="blue" stroke="black" stroke-width="1" opacity="0.5" /><circle cx="195.6" cy="459.99999999999994" r="5" fill="blue" stroke="black" stroke-width="1" opacity="0.5" /><circle cx="198.4" cy="480" r="5" fill="blue" stroke="black" stroke-width="1" opacity="0.5" /><circle cx="201.2" cy="490.00000000000006" r="5" fill="blue" stroke="black" stroke-width="1" opacity="0.5" /><circle cx="204" cy="450" r="5" fill="blue" stroke="black" stroke-width="1" opacity="0.5" /><circle cx="206.8" cy="410" r="5" fill="blue" stroke="black" stroke-width="1" opacity="0.5" /><circle cx="209.6" cy="490.00000000000006" r="5" fill="blue" stroke="black" stroke-width="1" opacity="0.5" /><circle cx="212.4" cy="450" r="5" fill="blue" stroke="black" stroke-width="1" opacity="0.5" /><circle cx="215.2" cy="509.99999999999994" r="5" fill="blue" stroke="black" stroke-width="1" opacity="0.5" /><circle cx="218" cy="459.99999999999994" r="5" fill="blue" stroke="black" stroke-width="1" opacity="0.5" /><circle cx="220.8" cy="410" r="5" fill="blue" stroke="black" stroke-width="1" opacity="0.5" /><circle cx="223.6" cy="470" r="5" fill="blue" stroke="black" stroke-width="1" opacity="0.5" /><circle cx="226.4" cy="470" r="5" fill="blue" stroke="black" stroke-width="1" opacity="0.5" /><circle cx="229.2" cy="520" r="5" fill="blue" stroke="black" stroke-width="1" opacity="0.5" /><circle cx="232" cy="370" r="5" fill="blue" stroke="black" stroke-width="1" opacity="0.5" /><circle cx="234.8" cy="380" r="5" fill="blue" stroke="black" stroke-width="1" opacity="0.5" /><circle cx="237.6" cy="410" r="5" fill="blue" stroke="black" stroke-width="1" opacity="0.5" /><circle cx="240.4" cy="440.00000000000006" r="5" fill="blue" stroke="black" stroke-width="1" opacity="0.5" /><circle cx="243.2" cy="380" r="5" fill="blue" stroke="black" stroke-width="1" opacity="0.5" /><circle cx="246" cy="440.00000000000006" r="5" fill="blue" stroke="black" stroke-width="1" opacity="0.5" /><circle cx="248.8" cy="410" r="5" fill="blue" stroke="black" stroke-width="1" opacity="0.5" /><circle cx="251.6" cy="440.00000000000006" r="5" fill="blue" stroke="black" stroke-width="1" opacity="0.5" /><circle cx="254.39999999999998" cy="490.00000000000006" r="5" fill="blue" stroke="black" stroke-width="1" opacity="0.5" /><circle cx="257.2" cy="440.00000000000006" r="5" fill="blue" stroke="black" stroke-width="1" opacity="0.5" /><circle cx="260" cy="470" r="5" fill="blue" stroke="black" stroke-width="1" opacity="0.5" /><circle cx="262.8" cy="450" r="5" fill="blue" stroke="black" stroke-width="1" opacity="0.5" /><circle cx="265.6" cy="450" r="5" fill="blue" stroke="black" stroke-width="1" opacity="0.5" /><circle cx="268.4" cy="430" r="5" fill="blue" stroke="black" stroke-width="1" opacity="0.5" /><circle cx="271.2" cy="430" r="5" fill="blue" stroke="black" stroke-width="1" opacity="0.5" /><circle cx="274" cy="480" r="5" fill="blue" stroke="black" stroke-width="1" opacity="0.5" /><circle cx="276.8" cy="470" r="5" fill="blue" stroke="black" stroke-width="1" opacity="0.5" /><circle cx="279.6" cy="410" r="5" fill="blue" stroke="black" stroke-width="1" opacity="0.5" /><circle cx="282.4" cy="430" r="5" fill="blue" stroke="black" stroke-width="1" opacity="0.5" /><circle cx="285.2" cy="400" r="5" fill="blue" stroke="black" stroke-width="1" opacity="0.5" /><circle cx="288" cy="459.99999999999994" r="5" fill="blue" stroke="black" stroke-width="1" opacity="0.5" /><circle cx="290.8" cy="450" r="5" fill="blue" stroke="black" stroke-width="1" opacity="0.5" /><circle cx="293.6" cy="400" r="5" fill="blue" stroke="black" stroke-width="1" opacity="0.5" /><circle cx="296.4" cy="459.99999999999994" r="5" fill="blue" stroke="black" stroke-width="1" opacity="0.5" /><circle cx="299.2" cy="509.99999999999994" r="5" fill="blue" stroke="black" stroke-width="1" opacity="0.5" /><circle cx="302" cy="440.00000000000006" r="5" fill="blue" stroke="black" stroke-width="1" opacity="0.5" /><circle cx="304.8" cy="450" r="5" fill="blue" stroke="black" stroke-width="1" opacity="0.5" /><circle cx="307.6" cy="500" r="5" fill="blue" stroke="black" stroke-width="1" opacity="0.5" /><circle cx="310.4" cy="509.99999999999994" r="5" fill="blue" stroke="black" stroke-width="1" opacity="0.5" /><circle cx="313.2" cy="450" r="5" fill="blue" stroke="black" stroke-width="1" opacity="0.5" /><circle cx="316" cy="440.00000000000006" r="5" fill="blue" stroke="black" stroke-width="1" opacity="0.5" /><circle cx="318.79999999999995" cy="470" r="5" fill="blue" stroke="black" stroke-width="1" opacity="0.5" /><circle cx="321.6" cy="440.00000000000006" r="5" fill="blue" stroke="black" stroke-width="1" opacity="0.5" /><circle cx="324.4" cy="490.00000000000006" r="5" fill="blue" stroke="black" stroke-width="1" opacity="0.5" /><circle cx="327.2" cy="420" r="5" fill="blue" stroke="black" stroke-width="1" opacity="0.5" /><circle cx="330" cy="450" r="5" fill="blue" stroke="black" stroke-width="1" opacity="0.5" /><circle cx="332.79999999999995" cy="250" r="5" fill="blue" stroke="black" stroke-width="1" opacity="0.5" /><circle cx="335.6" cy="310" r="5" fill="blue" stroke="black" stroke-width="1" opacity="0.5" /><circle cx="338.4" cy="260" r="5" fill="blue" stroke="black" stroke-width="1" opacity="0.5" /><circle cx="341.2" cy="400" r="5" fill="blue" stroke="black" stroke-width="1" opacity="0.5" /><circle cx="344" cy="300" r="5" fill="blue" stroke="black" stroke-width="1" opacity="0.5" /><circle cx="346.79999999999995" cy="380" r="5" fill="blue" stroke="black" stroke-width="1" opacity="0.5" /><circle cx="349.6" cy="320" r="5" fill="blue" stroke="black" stroke-width="1" opacity="0.5" /><circle cx="352.4" cy="459.99999999999994" r="5" fill="blue" stroke="black" stroke-width="1" opacity="0.5" /><circle cx="355.2" cy="290" r="5" fill="blue" stroke="black" stroke-width="1" opacity="0.5" /><circle cx="358" cy="430" r="5" fill="blue" stroke="black" stroke-width="1" opacity="0.5" /><circle cx="360.79999999999995" cy="450" r="5" fill="blue" stroke="black" stroke-width="1" opacity="0.5" /><circle cx="363.6" cy="360" r="5" fill="blue" stroke="black" stroke-width="1" opacity="0.5" /><circle cx="366.4" cy="350" r="5" fill="blue" stroke="black" stroke-width="1" opacity="0.5" /><circle cx="369.2" cy="340" r="5" fill="blue" stroke="black" stroke-width="1" opacity="0.5" /><circle cx="372" cy="390" r="5" fill="blue" stroke="black" stroke-width="1" opacity="0.5" /><circle cx="374.79999999999995" cy="280" r="5" fill="blue" stroke="black" stroke-width="1" opacity="0.5" /><circle cx="377.6" cy="390" r="5" fill="blue" stroke="black" stroke-width="1" opacity="0.5" /><circle cx="380.4" cy="370" r="5" fill="blue" stroke="black" stroke-width="1" opacity="0.5" /><circle cx="383.2" cy="330" r="5" fill="blue" stroke="black" stroke-width="1" opacity="0.5" /><circle cx="386" cy="390" r="5" fill="blue" stroke="black" stroke-width="1" opacity="0.5" /><circle cx="388.79999999999995" cy="360" r="5" fill="blue" stroke="black" stroke-width="1" opacity="0.5" /><circle cx="391.6" cy="340" r="5" fill="blue" stroke="black" stroke-width="1" opacity="0.5" /><circle cx="394.4" cy="320" r="5" fill="blue" stroke="black" stroke-width="1" opacity="0.5" /><circle cx="397.2" cy="340" r="5" fill="blue" stroke="black" stroke-width="1" opacity="0.5" /><circle cx="400" cy="310" r="5" fill="blue" stroke="black" stroke-width="1" opacity="0.5" /><circle cx="402.79999999999995" cy="290" r="5" fill="blue" stroke="black" stroke-width="1" opacity="0.5" /><circle cx="405.6" cy="270" r="5" fill="blue" stroke="black" stroke-width="1" opacity="0.5" /><circle cx="408.4" cy="280" r="5" fill="blue" stroke="black" stroke-width="1" opacity="0.5" /><circle cx="411.2" cy="350" r="5" fill="blue" stroke="black" stroke-width="1" opacity="0.5" /><circle cx="414" cy="380" r="5" fill="blue" stroke="black" stroke-width="1" opacity="0.5" /><circle cx="416.79999999999995" cy="400" r="5" fill="blue" stroke="black" stroke-width="1" opacity="0.5" /><circle cx="419.6" cy="400" r="5" fill="blue" stroke="black" stroke-width="1" opacity="0.5" /><circle cx="422.4" cy="370" r="5" fill="blue" stroke="black" stroke-width="1" opacity="0.5" /><circle cx="425.2" cy="350" r="5" fill="blue" stroke="black" stroke-width="1" opacity="0.5" /><circle cx="428" cy="410" r="5" fill="blue" stroke="black" stroke-width="1" opacity="0.5" /><circle cx="430.79999999999995" cy="350" r="5" fill="blue" stroke="black" stroke-width="1" opacity="0.5" /><circle cx="433.6" cy="280" r="5" fill="blue" stroke="black" stroke-width="1" opacity="0.5" /><circle cx="436.4" cy="320" r="5" fill="blue" stroke="black" stroke-width="1" opacity="0.5" /><circle cx="439.2" cy="390" r="5" fill="blue" stroke="black" stroke-width="1" opacity="0.5" /><circle cx="442" cy="400" r="5" fill="blue" stroke="black" stroke-width="1" opacity="0.5" /><circle cx="444.79999999999995" cy="400" r="5" fill="blue" stroke="black" stroke-width="1" opacity="0.5" /><circle cx="447.59999999999997" cy="340" r="5" fill="blue" stroke="black" stroke-width="1" opacity="0.5" /><circle cx="450.4" cy="370" r="5" fill="blue" stroke="black" stroke-width="1" opacity="0.5" /><circle cx="453.2" cy="450" r="5" fill="blue" stroke="black" stroke-width="1" opacity="0.5" /><circle cx="456" cy="390" r="5" fill="blue" stroke="black" stroke-width="1" opacity="0.5" /><circle cx="458.79999999999995" cy="380" r="5" fill="blue" stroke="black" stroke-width="1" opacity="0.5" /><circle cx="461.59999999999997" cy="380" r="5" fill="blue" stroke="black" stroke-width="1" opacity="0.5" /><circle cx="464.4" cy="330" r="5" fill="blue" stroke="black" stroke-width="1" opacity="0.5" /><circle cx="467.2" cy="440.00000000000006" r="5" fill="blue" stroke="black" stroke-width="1" opacity="0.5" /><circle cx="470" cy="380" r="5" fill="blue" stroke="black" stroke-width="1" opacity="0.5" /><circle cx="472.79999999999995" cy="320" r="5" fill="blue" stroke="black" stroke-width="1" opacity="0.5" /><circle cx="475.59999999999997" cy="370" r="5" fill="blue" stroke="black" stroke-width="1" opacity="0.5" /><circle cx="478.4" cy="240" r="5" fill="blue" stroke="black" stroke-width="1" opacity="0.5" /><circle cx="481.2" cy="320" r="5" fill="blue" stroke="black" stroke-width="1" opacity="0.5" /><circle cx="484" cy="300" r="5" fill="blue" stroke="black" stroke-width="1" opacity="0.5" /><circle cx="486.79999999999995" cy="190" r="5" fill="blue" stroke="black" stroke-width="1" opacity="0.5" /><circle cx="489.59999999999997" cy="459.99999999999994" r="5" fill="blue" stroke="black" stroke-width="1" opacity="0.5" /><circle cx="492.4" cy="220" r="5" fill="blue" stroke="black" stroke-width="1" opacity="0.5" /><circle cx="495.2" cy="280" r="5" fill="blue" stroke="black" stroke-width="1" opacity="0.5" /><circle cx="498" cy="230" r="5" fill="blue" stroke="black" stroke-width="1" opacity="0.5" /><circle cx="500.79999999999995" cy="300" r="5" fill="blue" stroke="black" stroke-width="1" opacity="0.5" /><circle cx="503.59999999999997" cy="310" r="5" fill="blue" stroke="black" stroke-width="1" opacity="0.5" /><circle cx="506.4" cy="270" r="5" fill="blue" stroke="black" stroke-width="1" opacity="0.5" /><circle cx="509.2" cy="380" r="5" fill="blue" stroke="black" stroke-width="1" opacity="0.5" /><circle cx="512" cy="370" r="5" fill="blue" stroke="black" stroke-width="1" opacity="0.5" /><circle cx="514.8" cy="310" r="5" fill="blue" stroke="black" stroke-width="1" opacity="0.5" /><circle cx="517.5999999999999" cy="300" r="5" fill="blue" stroke="black" stroke-width="1" opacity="0.5" /><circle cx="520.4" cy="180" r="5" fill="blue" stroke="black" stroke-width="1" opacity="0.5" /><circle cx="523.2" cy="180" r="5" fill="blue" stroke="black" stroke-width="1" opacity="0.5" /><circle cx="526" cy="350" r="5" fill="blue" stroke="black" stroke-width="1" opacity="0.5" /><circle cx="528.8" cy="260" r="5" fill="blue" stroke="black" stroke-width="1" opacity="0.5" /><circle cx="531.5999999999999" cy="390" r="5" fill="blue" stroke="black" stroke-width="1" opacity="0.5" /><circle cx="534.4" cy="180" r="5" fill="blue" stroke="black" stroke-width="1" opacity="0.5" /><circle cx="537.2" cy="320" r="5" fill="blue" stroke="black" stroke-width="1" opacity="0.5" /><circle cx="540" cy="280" r="5" fill="blue" stroke="black" stroke-width="1" opacity="0.5" /><circle cx="542.8" cy="230" r="5" fill="blue" stroke="black" stroke-width="1" opacity="0.5" /><circle cx="545.5999999999999" cy="330" r="5" fill="blue" stroke="black" stroke-width="1" opacity="0.5" /><circle cx="548.4" cy="340" r="5" fill="blue" stroke="black" stroke-width="1" opacity="0.5" /><circle cx="551.2" cy="310" r="5" fill="blue" stroke="black" stroke-width="1" opacity="0.5" /><circle cx="554" cy="230" r="5" fill="blue" stroke="black" stroke-width="1" opacity="0.5" /><circle cx="556.8" cy="210" r="5" fill="blue" stroke="black" stroke-width="1" opacity="0.5" /><circle cx="559.5999999999999" cy="160" r="5" fill="blue" stroke="black" stroke-width="1" opacity="0.5" /><circle cx="562.4" cy="310" r="5" fill="blue" stroke="black" stroke-width="1" opacity="0.5" /><circle cx="565.2" cy="320" r="5" fill="blue" stroke="black" stroke-width="1" opacity="0.5" /><circle cx="568" cy="340" r="5" fill="blue" stroke="black" stroke-width="1" opacity="0.5" /><circle cx="570.8" cy="180" r="5" fill="blue" stroke="black" stroke-width="1" opacity="0.5" /><circle cx="573.5999999999999" cy="320" r="5" fill="blue" stroke="black" stroke-width="1" opacity="0.5" /><circle cx="576.4" cy="310" r="5" fill="blue" stroke="black" stroke-width="1" opacity="0.5" /><circle cx="579.2" cy="350" r="5" fill="blue" stroke="black" stroke-width="1" opacity="0.5" /><circle cx="582" cy="260" r="5" fill="blue" stroke="black" stroke-width="1" opacity="0.5" /><circle cx="584.8" cy="280" r="5" fill="blue" stroke="black" stroke-width="1" opacity="0.5" /><circle cx="587.5999999999999" cy="260" r="5" fill="blue" stroke="black" stroke-width="1" opacity="0.5" /><circle cx="590.4" cy="370" r="5" fill="blue" stroke="black" stroke-width="1" opacity="0.5" /><circle cx="593.2" cy="270" r="5" fill="blue" stroke="black" stroke-width="1" opacity="0.5" /><circle cx="596" cy="280" r="5" fill="blue" stroke="black" stroke-width="1" opacity="0.5" /><circle cx="598.8" cy="280" r="5" fill="blue" stroke="black" stroke-width="1" opacity="0.5" /><circle cx="601.5999999999999" cy="320" r="5" fill="blue" stroke="black" stroke-width="1" opacity="0.5" /><circle cx="604.4" cy="300" r="5" fill="blue" stroke="black" stroke-width="1" opacity="0.5" /><circle cx="607.2" cy="330" r="5" fill="blue" stroke="black" stroke-width="1" opacity="0.5" /><circle cx="610" cy="360" r="5" fill="blue" stroke="black" stroke-width="1" opacity="0.5" /></g></svg>