<svg width="800" height="600" xmlns="http://www.w3.org/2000/svg"><rect x="0" y="0" width="800" height="600" fill="#FFFFFF" /><text x="400" y="25" text-anchor="middle" font-family="Arial" font-size="16" fill="black">Histogram Example</text><defs><clipPath id="plotAreaClip"><rect x="50" y="50" width="700" height="500" /></clipPath></defs><line x1="50" y1="550" x2="750" y2="550" stroke="black" stroke-width="1" /><line x1="50" y1="550" x2="50" y2="555" stroke="black" stroke-width="1" /><text x="50" y="563" text-anchor="middle" font-family="Arial" font-size="10" fill="black">0</text><line x1="225" y1="550" x2="225" y2="555" stroke="black" stroke-width="1" /><text x="225" y="563" text-anchor="middle" font-family="Arial" font-size="10" fill="black">2</text><line x1="400" y1="550" x2="400" y2="555" stroke="black" stroke-width="1" /><text x="400" y="563" text-anchor="middle" font-family="Arial" font-size="10" fill="black">4</text><line x1="575" y1="550" x2="575" y2="555" stroke="black" stroke-width="1" /><text x="575" y="563" text-anchor="middle" font-family="Arial" font-size="10" fill="black">6</text><line x1="750" y1="550" x2="750" y2="555" stroke="black" stroke-width="1" /><text x="750" y="563" text-anchor="middle" font-family="Arial" font-size="10" fill="black">8</text><text x="400" y="587.5" text-anchor="middle" font-family="Arial" font-size="12" fill="black">Value</text><line x1="50" y1="50" x2="50" y2="550" stroke="black" stroke-width="1" /><line x1="45" y1="550" x2="50" y2="550" stroke="black" stroke-width="1" /><text x="40" y="550" text-anchor="end" dominant-baseline="middle" font-family="Arial" font-size="10" fill="black">0</text><line x1="45" y1="425" x2="50" y2="425" stroke="black" stroke-width="1" /><text x="40" y="425" text-anchor="end" dominant-baseline="middle" font-family="Arial" font-size="10" fill="black">2</text><line x1="45" y1="300" x2="50" y2="300" stroke="black" stroke-width="1" /><text x="40" y="300" text-anchor="end" dominant-baseline="middle" font-family="Arial" font-size="10" fill="black">4</text><line x1="45" y1="175" x2="50" y2="175" stroke="black" stroke-width="1" /><text x="40" y="175" text-anchor="end" dominant-baseline="middle" font-family="Arial" font-size="10" fill="black">6</text><line x1="45" y1="50" x2="50" y2="50" stroke="black" stroke-width="1" /><text x="40" y="50" text-anchor="end" dominant-baseline="middle" font-family="Arial" font-size="10" fill="black">8</text><text transform="translate(25,300) rotate(-90)" text-anchor="middle" font-family="Arial" font-size="12" fill="black">Frequency</text><rect x="50" y="50" width="700" height="500" fill="none" stroke="gray" stroke-width="1" /><g id="legend" transform="translate(681, 60)"><rect x="0" y="0" width="59" height="25" fill="white" fill-opacity="0.85" stroke="gray" stroke-width="0.5" /><g transform="translate(5, 5)"><rect x="5" y="2.5" width="10" height="10" fill="blue" stroke="black" stroke-width="1" /><text x="25" y="7.5" font-family="Arial" font-size="10" fill="black" dominant-baseline="middle" text-anchor="start">Data</text></g></g><g id="data-series" clip-path="url(#plotAreaClip)"><rect x="137.5" y="362.5" width="141.91804656337933" height="187.5" fill="blue" fill-opacity="0.5" stroke="black" stroke-width="0.5" /><rect x="279.41804656337933" y="112.5" width="141.9180465633794" height="437.5" fill="blue" fill-opacity="0.5" stroke="black" stroke-width="0.5" /><rect x="421.3360931267587" y="237.5" width="141.91804656337928" height="312.5" fill="blue" fill-opacity="0.5" stroke="black" stroke-width="0.5" /></g></svg>