<svg width="800" height="600" xmlns="http://www.w3.org/2000/svg"><rect x="0" y="0" width="800" height="600" fill="#FFFFFF" /><text x="400" y="25" text-anchor="middle" font-family="Arial" font-size="16" fill="black">Sine Wave Plot</text><defs><clipPath id="plotAreaClip"><rect x="50" y="50" width="700" height="500" /></clipPath></defs><line x1="50" y1="550" x2="750" y2="550" stroke="black" stroke-width="1" /><line x1="50" y1="550" x2="50" y2="555" stroke="black" stroke-width="1" /><text x="50" y="563" text-anchor="middle" font-family="Arial" font-size="10" fill="black">-10</text><line x1="225" y1="550" x2="225" y2="555" stroke="black" stroke-width="1" /><text x="225" y="563" text-anchor="middle" font-family="Arial" font-size="10" fill="black">0</text><line x1="400" y1="550" x2="400" y2="555" stroke="black" stroke-width="1" /><text x="400" y="563" text-anchor="middle" font-family="Arial" font-size="10" fill="black">10</text><line x1="575" y1="550" x2="575" y2="555" stroke="black" stroke-width="1" /><text x="575" y="563" text-anchor="middle" font-family="Arial" font-size="10" fill="black">20</text><line x1="750" y1="550" x2="750" y2="555" stroke="black" stroke-width="1" /><text x="750" y="563" text-anchor="middle" font-family="Arial" font-size="10" fill="black">30</text><text x="400" y="587.5" text-anchor="middle" font-family="Arial" font-size="12" fill="black">X</text><line x1="50" y1="50" x2="50" y2="550" stroke="black" stroke-width="1" /><line x1="45" y1="550" x2="50" y2="550" stroke="black" stroke-width="1" /><text x="40" y="550" text-anchor="end" dominant-baseline="middle" font-family="Arial" font-size="10" fill="black">-2</text><line x1="45" y1="425" x2="50" y2="425" stroke="black" stroke-width="1" /><text x="40" y="425" text-anchor="end" dominant-baseline="middle" font-family="Arial" font-size="10" fill="black">-1</text><line x1="45" y1="300" x2="50" y2="300" stroke="black" stroke-width="1" /><text x="40" y="300" text-anchor="end" dominant-baseline="middle" font-family="Arial" font-size="10" fill="black">0</text><line x1="45" y1="175" x2="50" y2="175" stroke="black" stroke-width="1" /><text x="40" y="175" text-anchor="end" dominant-baseline="middle" font-family="Arial" font-size="10" fill="black">1</text><line x1="45" y1="50" x2="50" y2="50" stroke="black" stroke-width="1" /><text x="40" y="50" text-anchor="end" dominant-baseline="middle" font-family="Arial" font-size="10" fill="black">2</text><text transform="translate(25,300) rotate(-90)" text-anchor="middle" font-family="Arial" font-size="12" fill="black">Y</text><rect x="50" y="50" width="700" height="500" fill="none" stroke="gray" stroke-width="1" /><g id="legend" transform="translate(651, 60)"><rect x="0" y="0" width="89" height="25" fill="white" fill-opacity="0.85" stroke="gray" stroke-width="0.5" /><g transform="translate(5, 5)"><line x1="5" y1="7.5" x2="20" y2="7.5" stroke="green" stroke-width="2" /><text x="25" y="7.5" font-family="Arial" font-size="10" fill="black" dominant-baseline="middle" text-anchor="start">Sine Wave</text></g></g><g id="data-series" clip-path="url(#plotAreaClip)"><path d="M 225 300 L 226.10231321178588 292.1315398339399 L 227.2046264235718 284.2942886841467 L 228.30693963535768 276.51933178120674 L 229.40925284714356 268.83750727532185 L 230.51156605892947 261.27928392161107 L 231.61387927071536 253.87464023056012 L 232.71619248250124 246.65294556294953 L 233.81850569428713 239.6428436408799 L 234.92081890607304 232.87213893692928 L 236.02313211785892 226.3676863920624 L 237.1254453296448 220.155284899709 L 238.22775854143072 214.25957497848896 L 239.3300717532166 208.70394103945006 L 240.43238496500248 203.51041863545987 L 241.5346981767884 198.69960706063296 L 242.63701138857428 194.29058764645305 L 243.73932460036016 190.30084807865717 L 244.84163781214608 186.74621303506586 L 245.94395102393196 183.64078141947448 L 247.04626423571784 180.99687044055673 L 248.14857744750373 178.8249667575837 L 249.25089065928964 177.13368488673024 L 250.35320387107552 175.92973303294445 L 251.4555170828614 175.21788648290197 L 252.55783029464732 175.0009686645787 L 253.6601435064332 175.27983994856527 L 254.76245671821908 176.05339423554182 L 255.864769930005 177.31856334344775 L 256.96708314179085 179.07032917694607 L 258.0693963535768 181.30174363091336 L 259.1717095653627 184.00395614901169 L 260.27402277714856 187.16624882803586 L 261.37633598893444 190.77607892879965 L 262.4786492007203 194.81912862494846 L 263.5809624125062 199.2793617923777 L 264.68327562429215 204.1390876140103 L 265.78558883607803 209.3790307476549 L 266.8879020478639 214.97840777863507 L 267.9902152596498 220.91500965395244 L 269.0925284714357 227.1652897710206 L 270.19484168322157 233.70445737158076 L 271.29715489500745 240.5065758703658 L 272.3994681067934 247.54466572850816 L 273.5017813185793 254.79081146366005 L 274.60409453036516 262.2162723723867 L 275.70640774215104 269.79159652567034 L 276.8087209539369 277.48673758537916 L 277.9110341657228 285.2711739783667 L 279.0133473775087 293.1140299555168 L 280.11566058929463 300.98419805557234 L 281.2179738010805 308.8504624880133 L 282.3202870128664 316.6816229456069 L 283.4226002246523 324.44661835554433 L 284.52491343643817 332.1146500783274 L 285.6272266482241 339.6553040657534 L 286.72953986001 347.0386714934794 L 287.8318530717959 354.23546738969475 L 288.93416628358176 361.2171467893803 L 290.03647949536764 367.9560179534465 L 291.1387927071535 374.4253522036844 L 292.2411059189394 380.59948993788566 L 293.34341913072535 386.45394240464105 L 294.44573234251123 391.96548883414147 L 295.5480455542971 397.11226853972846 L 296.650358766083 401.87386762488825 L 297.7526719778689 406.23139995177814 L 298.8549851896548 410.1675820501381 L 299.95729840144065 413.66680166947106 L 301.0596116132266 416.7151797025927 L 302.1619248250125 419.3006252349384 L 303.26423803679836 421.4128835012843 L 304.36655124858424 423.0435765596693 L 305.4688644603701 424.1862365211912 L 306.57117767215607 424.8363312038761 L 307.6734908839419 424.99128210886937 L 308.77580409572784 424.6504746476475 L 309.8781173075137 423.8152605796879 L 310.9804305192996 422.48895265092597 L 312.0827437310855 420.6768114542668 L 313.18505694287137 418.38602456426634 L 314.2873701546573 415.62567802874156 L 315.38968336644314 412.406720330383 L 316.4919965782291 408.741918961311 L 317.59430979001496 404.6458097828161 L 318.69662300180084 400.1346393711385 L 319.7989362135867 395.22630057796596 L 320.9012494253726 389.940261561236 L 322.00356263715855 384.2974885677338 L 323.10587584894444 378.32036277375425 L 324.2081890607303 372.03259151366706 L 325.3105022725162 365.45911424848475 L 326.4128154843021 358.62600364739137 L 327.51512869608797 351.56036217457995 L 328.61744190787385 344.29021459156735 L 329.7197551196598 336.8443968013631 L 330.8220683314457 329.25244147537035 L 331.92438154323156 321.5444609166657 L 333.02669475501745 313.75102762425996 L 334.12900796680333 305.9030530320629 L 335.2313211785892 298.0316649035178 L 336.3336343903751 290.1680838681965 L 337.43594760216104 282.3434995900573 L 338.5382608139469 274.5889470585216 L 339.6405740257328 266.9351834930445 L 340.7428872375187 259.4125663494146 L 341.84520044930457 252.05093291165588 L 342.9475136610905 244.87948194710805 L 344.0498268728764 237.92665789408366 L 345.1521400846623 231.2200380414542 L 346.25445329644816 224.78622314764732 L 347.35676650823405 218.65073193290084 L 348.45907972001993 212.83789986325058 L 349.5613929318058 207.37078262771195 L 350.66370614359175 202.2710646914963 L 351.76601935537764 197.5589732879717 L 352.8683325671635 193.2531981905069 L 353.9706457789494 189.37081758240865 L 355.0729589907353 185.9272303189797 L 356.1752722025212 182.93609485036814 L 357.27758541430705 180.4092750474619 L 358.379898626093 178.3567931457007 L 359.4822118378789 176.78678999344714 L 360.58452504966476 175.7054927625854 L 361.68683826145065 175.11719024941812 L 362.78915147323653 175.02421586382673 L 363.89146468502247 175.42693837416627 L 364.9937778968083 176.32376044460347 L 366.09609110859424 177.71112497069925 L 367.19840432038006 179.58352918810726 L 368.300717532166 181.93354649842763 L 369.4030307439519 184.75185592564742 L 370.50534395573777 188.02727908633426 L 371.60765716752366 191.7468245269451 L 372.7099703793096 195.89573925239443 L 373.8122835910955 200.45756724150073 L 374.91459680288136 205.41421471722083 L 376.01691001466725 210.74602191278552 L 377.1192232264532 216.43184104908823 L 378.221536438239 222.44912021404332 L 379.32384965002495 228.77399281121666 L 380.42616286181084 235.38137222294685 L 381.5284760735967 242.24505131248887 L 382.6307892853826 249.33780637052297 L 383.7331024971685 256.631505093738 L 384.83541570895443 264.09721816721174 L 385.93772892074026 271.70533400801185 L 387.0400421325262 279.42567621490815 L 388.1423553443121 287.2276232583468 L 389.24466855609796 295.0802299359556 L 390.34698176788385 302.9523501118497 L 391.44929497966973 310.8127602529057 L 392.55160819145567 318.6302832720218 L 393.6539214032415 326.3739121871552 L 394.75623461502744 334.0129331056668 L 395.8585478268133 341.5170470461706 L 396.9608610385992 348.85649011470286 L 398.0631742503851 356.0021515585521 L 399.165487462171 362.9256892295049 L 400.2678006739569 369.5996419985428 L 401.37011388574274 375.99753867611406 L 402.4724270975287 382.0940030059667 L 403.57474030931456 387.8648543160984 L 404.67705352110045 393.28720342760823 L 405.77936673288633 398.3395434410455 L 406.8816799446722 403.0018350401606 L 407.98399315645815 407.25558597471814 L 409.086306368244 411.0839244071144 L 410.1886195800299 414.47166583188215 L 411.2909327918158 417.40537330265545 L 412.3932460036017 419.8734107277154 L 413.4955592153876 421.86598902272794 L 414.59787242717346 423.3752049376149 L 415.7001856389594 424.3950724035593 L 416.8024988507453 424.9215462758106 L 417.90481206253116 424.9525383781189 L 419.0071252743171 424.4879257851589 L 420.10943848610293 423.52955131009423 L 421.2117516978889 422.0812161953472 L 422.3140649096747 420.1486650355657 L 423.41637812146064 417.73956299258674 L 424.5186913332465 414.86346539277184 L 425.6210045450324 411.53177982729926 L 426.7233177568183 407.7577209057388 L 427.8256309686042 403.55625784236963 L 428.9279441803901 398.9440550831347 L 430.03025739217594 393.9394062087221 L 431.1325706039619 388.56216137593935 L 432.23488381574776 382.83364858517257 L 433.33719702753365 376.77658908620856 L 434.43951023931953 370.4150072579529 L 435.5418234511054 363.774135319489 L 436.64413666289136 356.8803132504296 L 437.7464498746772 349.7608843175069 L 438.8487630864631 342.4440866217836 L 439.951076298249 334.95894109664323 L 441.0533895100349 327.335136400797 L 442.1557027218208 319.60291116286436 L 443.25801593360666 311.79293404458275 L 444.3603291453926 303.9361820983599 L 445.4626423571784 296.0638179016402 L 446.56495556896436 288.20706595541714 L 447.66726878075025 280.39708883713575 L 448.76958199253613 272.6648635992031 L 449.871895204322 265.0410589033569 L 450.9742084161079 257.5559133782163 L 452.07652162789384 250.2391156824932 L 453.17883483967967 243.11968674957052 L 454.2811480514656 236.2258646805111 L 455.38346126325155 229.58499274204723 L 456.4857744750374 223.22341091379155 L 457.5880876868233 217.16635141482755 L 458.6904008986092 211.4378386240606 L 459.7927141103951 206.06059379127797 L 460.89502732218097 201.05594491686537 L 461.99734053396685 196.44374215763048 L 463.0996537457528 192.2422790942613 L 464.2019669575386 188.46822017270077 L 465.30428016932456 185.1365346072282 L 466.40659338111044 182.2604370074132 L 467.5089065928963 179.85133496443433 L 468.6112198046822 177.9187838046528 L 469.7135330164681 176.47044868990582 L 470.81584622825403 175.5120742148411 L 471.91815944003986 175.04746162188107 L 473.0204726518258 175.07845372418936 L 474.1227858636117 175.60492759644072 L 475.22509907539757 176.6247950623851 L 476.32741228718345 178.13401097727203 L 477.42972549896933 180.12658927228455 L 478.5320387107553 182.5946266973446 L 479.6343519225411 185.5283341681178 L 480.73666513432704 188.9160755928855 L 481.8389783461129 192.7444140252819 L 482.9412915578988 196.99816495983936 L 484.0436047696847 201.66045655895437 L 485.1459179814706 206.71279657239165 L 486.2482311932565 212.1351456839017 L 487.3505444050424 217.90599699403316 L 488.4528576168283 224.00246132388585 L 489.55517082861417 230.40035800145733 L 490.65748404040005 237.07431077049503 L 491.75979725218593 243.9978484414478 L 492.8621104639718 251.14350988529702 L 493.96442367575776 258.4829529538295 L 495.06673688754364 265.9870668943331 L 496.1690500993295 273.6260878128447 L 497.2713633111154 281.369716727978 L 498.3736765229013 289.18723974709417 L 499.4759897346872 297.0476498881502 L 500.57830294647306 304.9197700640443 L 501.680616158259 312.7723767416533 L 502.7829293700449 320.57432378509174 L 503.88524258183077 328.29466599198804 L 504.98755579361665 335.90278183278815 L 506.08986900540253 343.3684949062619 L 507.1921822171884 350.6621936294769 L 508.2944954289743 357.75494868751105 L 509.3968086407602 364.61862777705306 L 510.49912185254607 371.2260071887831 L 511.601435064332 377.5508797859568 L 512.703748276118 383.5681589509119 L 513.8060614879038 389.25397808721453 L 514.9083746996896 394.5857852827791 L 516.0106879114755 399.5424327584992 L 517.1130011232615 404.1042607476055 L 518.2153143350473 408.25317547305474 L 519.3176275468334 411.97272091366574 L 520.4199407586192 415.2481440743526 L 521.522253970405 418.06645350157237 L 522.624567182191 420.4164708118927 L 523.7268803939769 422.2888750293007 L 524.8291936057627 423.67623955539653 L 525.9315068175486 424.5730616258337 L 527.0338200293345 424.9757841361733 L 528.1361332411204 424.8828097505819 L 529.2384464529064 424.29450723741456 L 530.3407596646922 423.21321000655286 L 531.443072876478 421.64320685429936 L 532.545386088264 419.59072495253815 L 533.6476993000499 417.0639051496319 L 534.7500125118358 414.07276968102025 L 535.8523257236217 410.6291824175913 L 536.9546389354075 406.7468018094931 L 538.0569521471934 402.4410267120283 L 539.1592653589794 397.72893530850376 L 540.2615785707652 392.6292173722881 L 541.363891782551 387.1621001367496 L 542.466204994337 381.3492680670994 L 543.5685182061229 375.2137768523526 L 544.6708314179089 368.7799619585458 L 545.7731446296947 362.07334210591637 L 546.8754578414805 355.12051805289207 L 547.9777710532665 347.94906708834424 L 549.0800842650524 340.58743365058564 L 550.1823974768382 333.0648165069558 L 551.2847106886242 325.41105294147826 L 552.38702390041 317.6565004099427 L 553.4893371121959 309.8319161318035 L 554.5916503239819 301.9683350964823 L 555.6939635357677 294.09694696793724 L 556.7962767475535 286.24897237574027 L 557.8985899593395 278.45553908333454 L 559.0009031711254 270.7475585246296 L 560.1032163829113 263.1556031986369 L 561.2055295946972 255.70978540843265 L 562.307842806483 248.43963782542016 L 563.4101560182689 241.3739963526087 L 564.5124692300549 234.54088575151542 L 565.6147824418407 227.9674084863331 L 566.7170956536266 221.67963722624566 L 567.8194088654125 215.70251143226608 L 568.9217220771984 210.059738438764 L 570.0240352889844 204.7736994220341 L 571.1263485007702 199.86536062886154 L 572.228661712556 195.35419021718403 L 573.330974924342 191.2580810386891 L 574.4332881361279 187.59327966961698 L 575.5356013479138 184.37432197125838 L 576.6379145596997 181.61397543573364 L 577.7402277714855 179.32318854573322 L 578.8425409832714 177.51104734907406 L 579.9448541950574 176.18473942031213 L 581.0471674068432 175.3495253523525 L 582.1494806186291 175.00871789113063 L 583.251793830415 175.1636687961239 L 584.3541070422009 175.81376347880882 L 585.4564202539868 176.9564234403307 L 586.5587334657727 178.58711649871566 L 587.6610466775585 180.69937476506152 L 588.7633598893444 183.28482029740718 L 589.8656731011304 186.333198330529 L 590.9679863129163 189.832417949862 L 592.0702995247021 193.76860004822186 L 593.172612736488 198.1261323751117 L 594.2749259482739 202.88773146027143 L 595.3772391600598 208.03451116585842 L 596.4795523718457 213.54605759535877 L 597.5818655836316 219.40051006211448 L 598.6841787954176 225.5746477963157 L 599.7864920072034 232.04398204655348 L 600.8888052189893 238.78285321061963 L 601.9911184307751 245.76453261030514 L 603.0934316425611 252.9613285065204 L 604.1957448543469 260.3446959342464 L 605.2980580661329 267.88534992167274 L 606.4003712779188 275.5533816444558 L 607.5026844897047 283.3183770543931 L 608.6049977014906 291.1495375119866 L 609.7073109132764 299.01580194442755 L 610.8096241250623 306.88597004448303 L 611.9119373368483 314.7288260216331 L 613.0142505486342 322.513262414621 L 614.11656376042 330.20840347432977 L 615.2188769722059 337.78372762761336 L 616.3211901839918 345.2091885363399 L 617.4235033957777 352.4553342714917 L 618.5258166075636 359.49342412963404 L 619.6281298193494 366.29554262841907 L 620.7304430311353 372.83471022897913 L 621.8327562429213 379.0849903460477 L 622.9350694547072 385.0215922213649 L 624.037382666493 390.6209692523451 L 625.1396958782789 395.86091238598965 L 626.2420090900648 400.7206382076222 L 627.3443223018508 405.1808713750514 L 628.4466355136366 409.2239210712002 L 629.5489487254225 412.8337511719642 L 630.6512619372083 415.9960438509883 L 631.7535751489943 418.6982563690866 L 632.8558883607802 420.92967082305387 L 633.958201572566 422.6814366565522 L 635.0605147843519 423.9466057644582 L 636.1628279961378 424.72016005143473 L 637.2651412079238 424.9990313354213 L 638.3674544197097 424.782113517098 L 639.4697676314955 424.07026696705555 L 640.5720808432814 422.86631511326976 L 641.6743940550673 421.17503324241636 L 642.7767072668532 419.0031295594433 L 643.8790204786391 416.35921858052563 L 644.981333690425 413.2537869649341 L 646.0836469022108 409.69915192134283 L 647.1859601139968 405.70941235354695 L 648.2882733257827 401.3003929393671 L 649.3905865375685 396.4895813645402 L 650.4928997493544 391.2960589605501 L 651.5952129611403 385.7404250215112 L 652.6975261729262 379.8447151002909 L 653.7998393847122 373.6323136079376 L 654.902152596498 367.1278610630708 L 656.0044658082838 360.35715635912015 L 657.1067790200698 353.3470544370506 L 658.2090922318557 346.1253597694401 L 659.3114054436415 338.72071607838916 L 660.4137186554275 331.16249272467803 L 661.5160318672133 323.4806682187932 L 662.6183450789993 315.7057113158533 L 663.7206582907852 307.8684601660602 L 664.822971502571 300.0000000000001" stroke="green" stroke-width="2" fill="none" stroke-opacity="1" /></g></svg>